<?xml version="1.0" encoding="UTF-8"?><svg id="Livello_1" xmlns="http://www.w3.org/2000/svg" xmlns:xlink="http://www.w3.org/1999/xlink" viewBox="0 0 200 200"><defs><style>.cls-1{fill:none;}.cls-2{clip-path:url(#clippath);}.cls-3{fill:#ffd44a;}.cls-4{fill-rule:evenodd;}</style><clipPath id="clippath"><rect class="cls-1" x="40.51" y="36.62" width="118.99" height="121.18"/></clipPath></defs><circle id="Ellisse_2" class="cls-3" cx="100" cy="100" r="96.7"/><g id="Raggruppa_15"><g class="cls-2"><g id="Raggruppa_14"><path id="Tracciato_27" class="cls-4" d="m43.25,126.99h54.13c-1.56-1.52-3.02-3.14-4.37-4.85,2.88-5.8.51-12.83-5.28-15.7-1.06-.52-2.18-.89-3.35-1.07l-.11-.37h.09c7.27,0,13.16-5.9,13.15-13.17,0-6.78-5.16-12.45-11.91-13.09-.54-1.85-1.44-3.58-2.65-5.09.26-1.58.54-3.03.83-4.34,3.99,4,9.41,6.25,15.06,6.25.9,0,1.8-.06,2.69-.17-.59,8.1.17,16.24,2.23,24.1-3.72,6.86-1.17,15.44,5.69,19.16,2.07,1.12,4.39,1.71,6.74,1.71.24,0,.48,0,.71-.02,3.67,2.95,7.84,5.21,12.32,6.67h27.51c1.52,0,2.74,1.23,2.75,2.75v7.79c0,1.52-1.23,2.74-2.75,2.75H43.25c-1.52,0-2.74-1.23-2.75-2.75v-7.79c0-1.52,1.23-2.74,2.75-2.75h0Zm39.26-18.12c4.45,0,8.06,3.61,8.06,8.06,0,4.45-3.61,8.06-8.06,8.06-3.88,0-7.21-2.77-7.92-6.59-3.5.95-7.11-1.11-8.07-4.62-.95-3.5,1.11-7.11,4.62-8.07,3.24-.88,6.63.83,7.85,3.96,1.1-.53,2.3-.81,3.52-.81h0Zm33.69-13.14c2.27,0,4.48.73,6.3,2.1,1.62-6.8,8.45-11,15.26-9.37,1.27.3,2.48.8,3.6,1.47,5.16-2.62,11.47-.55,14.08,4.61,2.62,5.16.55,11.47-4.61,14.08-1.47.74-3.09,1.13-4.74,1.13-.72,0-1.45-.07-2.16-.22-4.84,5.04-12.86,5.2-17.9.35,0,0-.01-.01-.02-.02-2.02,5.42-8.05,8.18-13.47,6.17-5.42-2.02-8.18-8.05-6.17-13.47,1.53-4.1,5.44-6.82,9.82-6.82h0Zm-55.61-16.5h.43c1.96-5.78,8.24-8.87,14.02-6.91,4.38,1.49,7.37,5.55,7.49,10.18,5.15-1.01,10.15,2.35,11.16,7.5,1.01,5.15-2.35,10.15-7.5,11.16-5.15,1.01-10.15-2.35-11.16-7.5-.02-.11-.04-.22-.06-.33-1.13.37-2.31.56-3.5.56h-.43c-1.99,5.77-8.28,8.84-14.05,6.85s-8.84-8.28-6.85-14.05c1.54-4.46,5.73-7.46,10.45-7.46h0Zm19.37-39.41c2.31,0,4.58.63,6.56,1.82,6.96-6.81,18.13-6.69,24.94.27,1.24,1.27,2.28,2.72,3.09,4.3,6.78-1.83,13.76,2.19,15.59,8.97,1.83,6.78-2.19,13.76-8.97,15.59-4.03,1.09-8.34.13-11.53-2.57-7.7,5.97-18.78,4.56-24.75-3.14-.16-.2-.31-.41-.46-.62-6.57,2.48-13.9-.84-16.38-7.41-2.48-6.57.84-13.9,7.41-16.38,1.43-.54,2.95-.82,4.48-.82h0Zm77.09,104.11c-1.16,7.95-7.96,13.85-15.99,13.87H60.89c-8.03-.02-14.83-5.92-15.99-13.87h112.15Z"/></g></g></g></svg>