<svg id="Raggruppa_6" data-name="Raggruppa 6" xmlns="http://www.w3.org/2000/svg" xmlns:xlink="http://www.w3.org/1999/xlink" width="39.791" height="47.089" viewBox="0 0 39.791 47.089">
  <defs>
    <style>
      .cls-1 {
        fill: none;
      }

      .cls-2 {
        clip-path: url(#clip-path);
      }

      .cls-3 {
        fill-rule: evenodd;
      }
    </style>
    <clipPath id="clip-path">
      <rect id="Rettangolo_167" data-name="Rettangolo 167" class="cls-1" width="39.791" height="47.089"/>
    </clipPath>
  </defs>
  <g id="Raggruppa_5" data-name="Raggruppa 5" class="cls-2">
    <path id="Tracciato_26" data-name="Tracciato 26" class="cls-3" d="M1.757,3.622A3.622,3.622,0,0,1,5.38,0H9a3.622,3.622,0,0,1,3.622,3.622V5.433h3.622a8.15,8.15,0,0,1,8.15,8.15v.31a8.148,8.148,0,0,1,4.528-2.825V9.056a3.622,3.622,0,0,1,3.622-3.622h3.622a3.622,3.622,0,0,1,3.622,3.622v2.717a.906.906,0,0,1-.906.906h-8.15A6.339,6.339,0,0,0,24.4,19.017v2.717h6.339a3.622,3.622,0,0,1,3.622,3.622v2.717a.906.906,0,0,1-.906.906H20.774V32.6h16.3a2.633,2.633,0,0,1,2.658,2.776,21.872,21.872,0,0,1-3.226,10.635,2.459,2.459,0,0,1-2.076,1.078H5.308a2.458,2.458,0,0,1-2.076-1.078A21.875,21.875,0,0,1,.006,35.376,2.633,2.633,0,0,1,2.663,32.6h16.3V28.978H6.286a.906.906,0,0,1-.906-.906V25.356A3.622,3.622,0,0,1,9,21.733H22.586V18.111H9.908A.906.906,0,0,1,9,17.206V14.489a3.622,3.622,0,0,1,3.622-3.622H21.68a2.8,2.8,0,0,1,.3.017,6.34,6.34,0,0,0-5.737-3.639H2.663a.906.906,0,0,1-.906-.906Zm.906,30.789a.823.823,0,0,0-.851.85,20.081,20.081,0,0,0,2.93,9.752.65.65,0,0,0,.564.265H31.345a22.491,22.491,0,0,0,3-10.867Z" transform="translate(0)"/>
  </g>
</svg>
