<?xml version="1.0" encoding="UTF-8"?><svg id="Livello_1" xmlns="http://www.w3.org/2000/svg" xmlns:xlink="http://www.w3.org/1999/xlink" viewBox="0 0 200 200"><defs><style>.cls-1{fill:none;}.cls-2{clip-path:url(#clippath);}.cls-3{fill:#ffd44a;}</style><clipPath id="clippath"><rect class="cls-1" x="48.44" y="45.83" width="103.12" height="108.56"/></clipPath></defs><circle id="Ellisse_5" class="cls-3" cx="100" cy="100.11" r="96.35"/><g id="Raggruppa_17"><g class="cls-2"><g id="Raggruppa_16"><path id="Tracciato_28" d="m123.33,135.93c-1.99.13,1.96-.3,2.21-.33h0c.82-.09,1.65-.1,2.48-.05.22-.03.45-.05.67-.06,1.44.05,2.88.22,4.29.49,5.7-5.58,12.02-24.55,11.76-26.53-.42-3.24-5.62-6.29-8.07-7.96h-.03l.63-2.16-5.6-1.23-.37,2.3c-3.18.53-8.98,1.3-10.55,4.21-1.21,2.26-3.3,24.33,1.36,31.52.4-.09.81-.16,1.22-.19h0Zm12.25-30.31l-4.43,20.83c-.06.3-.33.52-.64.52-.05,0-.09,0-.14-.01-.35-.07-.58-.42-.51-.78h0s4.43-20.83,4.43-20.83c.08-.35.42-.58.78-.51.35.07.58.42.51.78h0s0,0,0,0Zm-5.19-.48c.06-.36.39-.6.75-.54s.6.39.54.75h0l-4.37,27.27c-.05.32-.32.56-.65.56-.04,0-.07,0-.11,0-.36-.06-.6-.39-.54-.75l4.37-27.28Z"/><path id="Tracciato_29" d="m137.64,132.57l-.75-.24c-.87,1.36-1.84,2.64-2.91,3.85.3.04,0,0,.31.03.72.08,1.24.73,1.16,1.45-.08.72-.73,1.24-1.45,1.16-.83-.09-1.63-.19-2.39-.29-3.78-.49-6.76-.87-10.52.64-.16.06-.32.1-.49.1-.72,0-1.31-.59-1.31-1.31,0-.53.32-1.01.82-1.21,1.47-.59.65-.34,1.14-.44-.9-1.29-1.47-2.79-1.65-4.35l-2.27-.08c-7.6,2.36-13.48,8.44-15.56,16.12.94,5.98,43.78,10.3,49.8,1.09-1.46-7.54-6.73-13.79-13.92-16.5h0Zm2.34,11.26c-.46,0-.89-.24-1.12-.64-.61-.83-1.4-1.51-2.32-1.99-.64-.34-.89-1.13-.55-1.77.34-.64,1.13-.89,1.77-.55,1.33.71,2.48,1.72,3.34,2.96.37.62.17,1.43-.45,1.8-.2.12-.44.19-.67.19h0Zm3.03,3.26c-.6.4-1.42.23-1.82-.37l-.26-.39c-.41-.59-.27-1.41.33-1.83.59-.41,1.41-.27,1.83.33.01.02.03.04.04.07l.26.39c.39.6.22,1.41-.38,1.8Z"/><path id="Tracciato_30" d="m147.64,63.65c-.77-2.06-2.35-3.72-4.37-4.59-2.99-.9-5.71,2.51-5.71,2.51l-4.89,30.28,6.36,1.39,8.61-29.59Zm-7.5,1.35c.35-1.61,1.42-2.73,2.38-2.52s1.46,1.68,1.11,3.29-1.42,2.73-2.38,2.52-1.46-1.68-1.11-3.29Z"/><path id="Tracciato_31" d="m129.12,96.53l2.71.59,8.43,1.85c.64.14,1.27-.26,1.41-.9,0,0,0,0,0,0l.42-1.94c.14-.64-.27-1.27-.9-1.41l-11.14-2.44c-.08-.02-.16-.03-.25-.03-.23,0-.45.06-.64.19-.26.17-.45.44-.52.74l-.42,1.94c-.14.64.26,1.27.89,1.41,0,0,0,0,0,0h0Z"/><path id="Tracciato_32" d="m104.41,109.86c-9.01,1.55-18.14,2.36-27.28,2.42-8.02.06-16.02-.8-23.84-2.54l4.65,24.72c6.51,2.88,13.57,4.32,20.69,4.2,7.26.07,14.46-1.36,21.15-4.2l4.63-24.6Z"/><path id="Tracciato_33" d="m105.52,98.36c.36-.15.73-.26,1.11-.34l2.53-13.43c-1.53,2.69-14.51,4.78-30.28,4.78-16.18,0-29.42-2.22-30.37-5l2.56,13.57c.12,0,.23,0,.35.02,15.9,4.29,35.6,4.42,54.11.39h0Z"/><path id="Tracciato_34" d="m103.96,107.05c.06,0,.12,0,.19,0,.26-.06.53-.1.8-.13l1.09-5.78c-9.1,1.99-18.39,3.01-27.71,3.03-9,.05-17.98-1.03-26.71-3.22l1.08,5.73c14.45,3.54,31.23,3.66,51.26.37h0Z"/><path id="Tracciato_35" d="m84,86.3l7.06-.39-.06-1.78c-.87-7.76,2.36-14.27,5.77-21.14.45-.9.9-1.82,1.35-2.73-8.09,6.72-13.08,14.61-14.12,22.4v3.64h0Z"/><path id="Tracciato_36" d="m67.82,82.97l-.15,3,9.47.44-.02-3.61c.27-3.86-2.11-9.01-6.37-13.8-4.59-5.17-10.21-8.76-14.64-9.45.62.86,1.23,1.71,1.83,2.55,4.79,6.61,8.93,12.32,9.87,20.85h0Z"/><path id="Tracciato_37" d="m92.44,76.48c-.56,2.48-.71,5.05-.44,7.58v1.83c10.25-.86,17.33-2.68,17.33-4.8,0-1.97-6.15-3.69-15.27-4.61h-1.61Z"/><path id="Tracciato_38" d="m66.69,85.97l.16-2.96c-.26-2.23-.78-4.43-1.55-6.54h-1.32c-9.26.91-15.53,2.65-15.53,4.63,0,2.17,7.51,4.05,18.24,4.87Z"/><path id="Tracciato_39" d="m78.12,86.41h.76c1.41,0,2.79-.02,4.14-.05v-3.77c.64-4.39,2.23-8.58,4.67-12.27l-.08-.21c-1.89-7.99-1.82-16.32.22-24.27-7.44,7.22-8.75,19.68-11.15,29.09l-.19.85c1.12,2.19,1.67,4.62,1.61,7.08l.02,3.56Z"/></g></g></g></svg>