<?xml version="1.0" encoding="UTF-8"?><svg id="Livello_1" xmlns="http://www.w3.org/2000/svg" viewBox="0 0 200 200"><defs><style>.cls-1{fill:#1e1e1c;}</style></defs><path class="cls-1" d="m58.37,148.36c.62,0,1.12-.5,1.12-1.12v-12.64c0-.62-.5-1.12-1.12-1.12s-1.12.5-1.12,1.12v12.64c0,.61.5,1.12,1.12,1.12Z"/><path class="cls-1" d="m59.93,110.74c.62,0,1.12-.5,1.12-1.12v-12.64c0-.62-.5-1.12-1.12-1.12s-1.12.5-1.12,1.12v12.64c0,.62.5,1.12,1.12,1.12Z"/><path class="cls-1" d="m67.46,174.75c.62,0,1.12-.5,1.12-1.12v-12.64c0-.62-.5-1.12-1.12-1.12s-1.12.5-1.12,1.12v12.64c0,.62.5,1.12,1.12,1.12Z"/><path class="cls-1" d="m81.4,140.92c-.62,0-1.12.5-1.12,1.12v12.64c0,.62.5,1.12,1.12,1.12s1.12-.5,1.12-1.12v-12.64c0-.62-.5-1.12-1.12-1.12Z"/><path class="cls-1" d="m100.92,157.66c-.62,0-1.12.5-1.12,1.12v12.64c0,.62.5,1.12,1.12,1.12s1.12-.5,1.12-1.12v-12.64c0-.62-.5-1.12-1.12-1.12Z"/><path class="cls-1" d="m120.44,162.11c-.62,0-1.12.5-1.12,1.12v12.64c0,.62.5,1.12,1.12,1.12s1.12-.5,1.12-1.12v-12.64c0-.62-.5-1.12-1.12-1.12Z"/><path class="cls-1" d="m124.9,134.6v12.64c0,.62.5,1.12,1.12,1.12s1.12-.5,1.12-1.12v-12.64c0-.62-.5-1.12-1.12-1.12s-1.12.5-1.12,1.12Z"/><path class="cls-1" d="m138.28,126.05c.62,0,1.12-.5,1.12-1.12v-12.64c0-.62-.5-1.12-1.12-1.12s-1.12.5-1.12,1.12v12.64c0,.61.5,1.12,1.12,1.12Z"/><path class="cls-1" d="m133.6,69.33c0,1.54-1.25,2.79-2.79,2.79s-2.79-1.25-2.79-2.79,1.25-2.79,2.79-2.79,2.79,1.25,2.79,2.79"/><path class="cls-1" d="m72.26,69.33c0,1.54-1.25,2.79-2.79,2.79s-2.79-1.25-2.79-2.79,1.25-2.79,2.79-2.79,2.79,1.25,2.79,2.79"/><path class="cls-1" d="m75.95,108.14c.03.07.08.13.12.2,1.92,4.52,4.83,8.49,8.56,11.48,2.93,11.29,8.72,18.75,15.51,18.75s12.69-7.6,15.6-19.06c6.79-5.64,10.85-14.55,10.85-24.11,0-16.53-11.92-29.97-26.58-29.97s-26.58,13.45-26.58,29.97c0,4.4.9,8.64,2.48,12.52.02.08.02.15.05.23h0Zm5.09.31c.57-.22,1.14-.41,1.71-.61.09,1.35.2,2.67.36,3.96-.77-1.06-1.46-2.18-2.07-3.36h0Zm6.11-1.9c3.51-.86,7.1-1.36,10.76-1.51v28.53c-5.06-2.38-10.02-12.6-10.76-27.02h0Zm15.23,27.02v-28.52c3.66.16,7.25.68,10.76,1.56-.75,14.38-5.71,24.58-10.76,26.96h0Zm14.85-22.23c.13-1.11.23-2.25.31-3.41.48.17.96.34,1.44.52-.52,1.01-1.11,1.97-1.75,2.89h0Zm-17.22-41.46c12.2,0,22.12,11.45,22.12,25.51,0,3.11-.5,6.12-1.42,8.95-5.87-2.24-12.02-3.5-18.33-3.75v-11.9c5.09-.69,8.92-3.71,8.92-7.33,0-4.13-4.99-7.48-11.15-7.48s-11.15,3.35-11.15,7.48c0,3.62,3.83,6.64,8.92,7.33v11.89c-6.41.23-12.66,1.48-18.61,3.76-.92-2.82-1.42-5.84-1.42-8.95,0-14.07,9.92-25.52,22.12-25.52h0Z"/><path class="cls-1" d="m100,4.09C47.11,4.09,4.09,47.11,4.09,100s43.03,95.91,95.91,95.91,95.91-43.03,95.91-95.91S152.89,4.09,100,4.09h0Zm-45.28,54.75c0-.69.27-1.34.76-1.83.79-.79,1.96-.94,2.92-.49-1.16,1.12-2.29,2.27-3.36,3.48-.19-.36-.31-.75-.31-1.16h0Zm45.28-10.14c28.29,0,51.3,23.02,51.3,51.3v64.58c-2.64,2.1-5.4,4.05-8.28,5.82v-11.63c0-.62-.5-1.12-1.12-1.12s-1.12.5-1.12,1.12v12.64c0,.09.03.17.05.26-12.05,6.9-25.99,10.86-40.84,10.86-19.38,0-37.21-6.73-51.3-17.96v-64.58c0-28.29,23.02-51.3,51.3-51.3h0Zm45.02,11.36c-1.08-1.21-2.2-2.38-3.37-3.5.97-.48,2.16-.35,2.97.45.83.83.94,2.06.4,3.04h0Zm20.08,69.19h12.06c-.87,2.28-1.82,4.51-2.88,6.69h-11.11c.57-2.37,1.21-4.59,1.92-6.69h0Zm-4.33,22.31h3.62c-1.24,1.55-2.54,3.06-3.89,4.51.06-1.53.15-3.04.27-4.51Zm.44-4.46c.28-2.31.62-4.55,1.02-6.69h9.7c-1.3,2.3-2.7,4.53-4.21,6.69h-6.52Zm20.23-33.71h-7.64c2.48-2.55,5.08-3.94,7.61-3.94.19,0,.38.04.57.05-.15,1.31-.33,2.6-.54,3.89h0Zm-11.1,4.46h10.24c-.52,2.35-1.13,4.67-1.84,6.94h-11.95c1.1-2.61,2.29-4.95,3.55-6.94h0ZM17.47,100c0-45.51,37.02-82.53,82.53-82.53s82.53,37.02,82.53,82.53c0,.21-.01.41-.02.61-.37-.02-.74-.09-1.12-.09-8.43,0-15.83,6.35-21.17,16.91v-17.43c0-12.04-3.56-23.25-9.67-32.67l.37-.37c4.49-4.49,4.49-11.78,0-16.27-4.48-4.49-11.78-4.49-16.27,0l-.05.05c-9.8-6.9-21.73-10.98-34.61-10.98s-24.76,4.06-34.55,10.94l-.02-.02c-4.48-4.49-11.78-4.49-16.27,0-2.17,2.17-3.37,5.06-3.37,8.13s1.2,5.96,3.37,8.13l.31.31c-6.13,9.43-9.7,20.66-9.7,32.72v56.35c-13.82-14.76-22.31-34.58-22.31-56.35h0Z"/></svg>