<svg id="Raggruppa_15" data-name="Raggruppa 15" xmlns="http://www.w3.org/2000/svg" xmlns:xlink="http://www.w3.org/1999/xlink" width="63.988" height="65.167" viewBox="0 0 63.988 65.167">
  <defs>
    <style>
      .cls-1 {
        fill: none;
      }

      .cls-2 {
        clip-path: url(#clip-path);
      }

      .cls-3 {
        fill-rule: evenodd;
      }
    </style>
    <clipPath id="clip-path">
      <rect id="Rettangolo_169" data-name="Rettangolo 169" class="cls-1" width="63.988" height="65.167"/>
    </clipPath>
  </defs>
  <g id="Raggruppa_14" data-name="Raggruppa 14" class="cls-2">
    <path id="Tracciato_27" data-name="Tracciato 27" class="cls-3" d="M1.475,48.6H30.586a26.619,26.619,0,0,1-2.351-2.61,6.3,6.3,0,0,0-4.642-9.021l-.058-.2h.05a7.078,7.078,0,0,0,.666-14.124,7.927,7.927,0,0,0-1.426-2.737c.139-.847.292-1.629.446-2.334a11.433,11.433,0,0,0,8.1,3.36,11.628,11.628,0,0,0,1.449-.091,39.672,39.672,0,0,0,1.2,12.96,7.6,7.6,0,0,0,6.686,11.221c.129,0,.257,0,.384-.011A20.864,20.864,0,0,0,47.716,48.6H62.51a1.481,1.481,0,0,1,1.477,1.477v4.188a1.481,1.481,0,0,1-1.477,1.477H1.477A1.481,1.481,0,0,1,0,54.265V50.077A1.481,1.481,0,0,1,1.477,48.6ZM22.59,38.855a4.335,4.335,0,1,1-4.263,5.127,3.534,3.534,0,1,1,2.366-4.692,4.325,4.325,0,0,1,1.895-.436Zm18.115-7.069a5.609,5.609,0,0,1,3.387,1.131,6.809,6.809,0,0,1,10.138-4.25,5.635,5.635,0,1,1,2.548,10.661,5.794,5.794,0,0,1-1.16-.118,6.807,6.807,0,0,1-9.635.18,5.635,5.635,0,1,1-5.282-7.6ZM10.8,22.919c.077,0,.153,0,.23,0A5.944,5.944,0,0,1,22.6,24.677,5.112,5.112,0,1,1,18.535,30.5a5.926,5.926,0,0,1-1.88.3c-.077,0-.153,0-.23,0a5.945,5.945,0,1,1-5.622-7.88ZM21.214,1.725a6.811,6.811,0,0,1,3.53.981A9.485,9.485,0,0,1,39.821,5.161,6.837,6.837,0,1,1,37.183,16.98a9.486,9.486,0,0,1-13.556-2.026A6.836,6.836,0,1,1,21.212,1.722ZM62.67,57.707a8.716,8.716,0,0,1-8.6,7.461H10.96a8.714,8.714,0,0,1-8.6-7.458H62.509c.054,0,.106,0,.16,0Z"/>
  </g>
</svg>
