<?xml version="1.0" encoding="UTF-8"?><svg id="Livello_1" xmlns="http://www.w3.org/2000/svg" xmlns:xlink="http://www.w3.org/1999/xlink" viewBox="0 0 200 200"><defs><style>.cls-1{fill:none;}.cls-2{clip-path:url(#clippath);}.cls-3{fill:#ffd44a;}</style><clipPath id="clippath"><rect class="cls-1" x="57.51" y="49.12" width="84.98" height="101.76"/></clipPath></defs><circle id="Ellisse_4" class="cls-3" cx="100" cy="100" r="97.15"/><g id="Raggruppa_21"><g class="cls-2"><g id="Raggruppa_20"><path id="Tracciato_42" d="m80.09,108.58h-.79v-17.02c0-1.33-1.08-2.41-2.41-2.41h-.46c-1.33,0-2.41,1.08-2.41,2.41v17h-.37c-1.47,0-2.74,1.01-3.07,2.45-2.09,9.55-3.42,19.25-3.97,29.01-.08,6,4.72,10.93,10.72,11.01,6,.08,10.93-4.72,11.01-10.72,0-.09,0-.19,0-.28-.84-9.86-2.58-19.61-5.19-29.15-.4-1.35-1.64-2.28-3.05-2.28h0Z"/><path id="Tracciato_43" d="m125.4,108.58h-.79v-17.02c0-1.33-1.08-2.41-2.41-2.41h-.46c-1.33,0-2.41,1.08-2.41,2.41v17h-.37c-1.47,0-2.74,1.01-3.07,2.45-2.09,9.55-3.42,19.25-3.97,29.01-.08,6,4.72,10.93,10.72,11.01,6,.08,10.93-4.72,11.01-10.72,0-.1,0-.19,0-.29-.84-9.86-2.58-19.61-5.19-29.15-.4-1.35-1.64-2.28-3.05-2.28h0Z"/><path id="Tracciato_44" d="m79.87,50.86c-1.92-2.14-5.21-2.33-7.35-.41-.14.13-.28.27-.41.41l-13.29,14.9c-.85.95-1.31,2.18-1.31,3.45v26.34c0,2.87,2.32,5.19,5.19,5.19h8.01v-9.21c0-3.15,2.55-5.69,5.7-5.7h.46c3.15,0,5.69,2.55,5.7,5.7v9.21h6.65c2.87,0,5.19-2.32,5.19-5.19h0v-26.34c0-1.27-.46-2.5-1.31-3.45l-13.22-14.9Z"/><path id="Tracciato_45" d="m138.96,49.28h-.02c-1.94,0-3.51,1.57-3.51,3.51v19.17c0,2.67-2.17,4.84-4.84,4.84s-4.84-2.17-4.84-4.84v-19.17c0-1.94-1.57-3.52-3.51-3.52-1.94,0-3.52,1.57-3.52,3.51h0v19.18c0,2.67-2.17,4.84-4.84,4.84s-4.84-2.17-4.84-4.84v-19.17c0-1.94-1.57-3.51-3.51-3.51h-.02c-1.94,0-3.51,1.57-3.51,3.51v40.27c0,4.25,3.45,7.7,7.7,7.7h6.35v-9.21c0-3.15,2.56-5.7,5.71-5.7,0,0,0,0,0,0h.46c3.15,0,5.69,2.55,5.7,5.7v9.21h6.88c4.25,0,7.7-3.45,7.7-7.7h0v-40.27c0-1.94-1.59-3.52-3.53-3.51Z"/></g></g></g></svg>