<?xml version="1.0" encoding="UTF-8"?><svg id="Livello_1" xmlns="http://www.w3.org/2000/svg" xmlns:xlink="http://www.w3.org/1999/xlink" viewBox="0 0 200 200"><defs><style>.cls-1{fill:none;}.cls-2{clip-path:url(#clippath);}.cls-3{fill:#ffd44a;}.cls-4{fill-rule:evenodd;}</style><clipPath id="clippath"><rect class="cls-1" x="33.32" y="79.64" width="133.35" height="40.72"/></clipPath></defs><circle id="Ellisse_3" class="cls-3" cx="100" cy="100" r="96.62"/><g id="Raggruppa_19"><g class="cls-2"><g id="Raggruppa_18"><path id="Tracciato_40" class="cls-4" d="m38.44,79.64h123.11c6.83,0,6.83,10.24,0,10.24H38.44c-6.82,0-6.82-10.24,0-10.24"/><path id="Tracciato_41" class="cls-4" d="m61.12,111.33c-1.07,2.23-2.46,4.28-4.14,6.09-3.66,5.12-12.19,2.92-8.53-1.95l2.92-4.14c-12.68,0-12.92-4.63-12.92-15.12.05-2,1.66-3.61,3.66-3.66h115.8c2,.05,3.61,1.66,3.66,3.66,0,10.48-.24,15.12-12.92,15.12l2.92,4.14c3.66,4.88-4.88,7.06-8.53,1.95-1.68-1.81-3.08-3.87-4.14-6.09H61.12Z"/></g></g></g></svg>